<svg width="41" height="41" viewBox="0 0 41 41" fill="none" xmlns="http://www.w3.org/2000/svg">
<circle cx="20.2773" cy="20.15" r="19.5" fill="white" stroke="#2F3337"/>
<path d="M9.18011 20.0667C9.18011 20.0667 8.89227 20.1798 8.76156 20.3188C8.6806 20.4049 8.64307 20.4633 8.59414 20.5709C8.53814 20.6941 8.49362 20.7728 8.51043 20.907C8.54222 21.1608 9.01269 21.3272 9.01269 21.3272L10.2683 21.7474L12.0262 22.3356L14.2864 23.0079L14.7886 22.6717L15.2909 22.3356L16.5465 21.5793L19.3089 19.8146L22.5736 17.7978L25.7373 15.7809C25.7373 15.7809 25.9545 15.613 26.0894 15.6129C26.2242 15.6128 26.2415 15.6129 26.3256 15.6969C26.4096 15.7809 26.4096 15.865 26.3256 15.949C26.1927 16.0819 26.134 16.0996 26.0056 16.2012C25.6965 16.446 25.2523 16.8734 25.2523 16.8734L23.7455 18.302L20.2297 21.4953L16.9651 24.3524L16.6302 29.3944C16.6302 29.3944 17.0116 29.334 17.2522 29.2264C17.5482 29.094 17.6934 28.9519 17.9222 28.7222C18.1837 28.4596 18.5555 28.0499 18.5555 28.0499L20.0623 26.7054L24.6663 30.0667C24.6663 30.0667 25.043 30.3895 25.336 30.4869L25.3421 30.4889C25.5579 30.5607 25.6957 30.6065 25.9219 30.5709C26.0959 30.5436 26.202 30.5116 26.3405 30.4028C26.4694 30.3016 26.5064 30.2067 26.5916 30.0667C26.6679 29.9414 26.7457 29.7306 26.7457 29.7306L27.5961 25.697L29.1029 18.7222L30.1071 14.2683C30.1071 14.2683 30.1911 13.8482 30.1911 13.5961C30.1911 13.344 30.1629 13.3338 30.1074 13.176C30.0587 13.0376 30.0162 12.9651 29.94 12.8398C29.8548 12.6999 29.7411 12.5913 29.6029 12.5033C29.4622 12.4138 29.4334 12.4247 29.2667 12.4193C29.068 12.4128 28.9623 12.4609 28.7681 12.5037C28.3641 12.5926 27.7635 12.8398 27.7635 12.8398L27.1776 13.0919L22.3224 14.9407L11.6914 19.0583L9.93349 19.7306L9.18011 20.0667Z" fill="#2F3337"/>
</svg>
