<svg width="41" height="41" viewBox="0 0 41 41" fill="none" xmlns="http://www.w3.org/2000/svg">
<g clip-path="url(#clip0_64_51)">
<mask id="mask0_64_51" style="mask-type:luminance" maskUnits="userSpaceOnUse" x="0" y="0" width="41" height="41">
<path d="M40.0776 0.150513H0.473633V40.1505H40.0776V0.150513Z" fill="white"/>
</mask>
<g mask="url(#mask0_64_51)">
<path d="M0.973633 19.3505C0.973633 14.811 0.974674 11.4562 1.31725 8.88269C1.65798 6.32302 2.32841 4.6114 3.61288 3.31408C4.89667 2.01745 6.58933 1.34126 9.1213 0.997438C11.6682 0.651596 14.9886 0.650513 19.4835 0.650513H21.0677C25.5626 0.650513 28.8831 0.651596 31.4299 0.997438C33.9619 1.34126 35.6546 2.01745 36.9384 3.31408C38.2228 4.6114 38.8932 6.32302 39.234 8.88269C39.5766 11.4562 39.5776 14.811 39.5776 19.3505V20.9505C39.5776 25.49 39.5766 28.8448 39.234 31.4183C38.8932 33.978 38.2228 35.6896 36.9384 36.987C35.6546 38.2836 33.9619 38.9598 31.4299 39.3036C28.8831 39.6494 25.5626 39.6505 21.0677 39.6505H19.4835C14.9886 39.6505 11.6682 39.6494 9.1213 39.3036C6.58933 38.9598 4.89667 38.2836 3.61288 36.987C2.32841 35.6896 1.65798 33.978 1.31725 31.4183C0.974674 28.8448 0.973633 25.49 0.973633 20.9505V19.3505Z" fill="white" stroke="#2F3337"/>
<path d="M21.6629 28.8005C12.6364 28.8005 7.48797 22.5505 7.27344 12.1505H11.7949C11.9434 19.7838 15.2767 23.0172 17.9169 23.6838V12.1505H22.1745V18.7338C24.7818 18.4505 27.5207 15.4505 28.4448 12.1505H32.7024C31.9928 16.2172 29.0225 19.2172 26.9103 20.4505C29.0225 21.4505 32.4055 24.0672 33.6926 28.8005H29.006C27.9994 25.6338 25.4913 23.1838 22.1745 22.8505V28.8005H21.6629Z" fill="#2F3337"/>
</g>
</g>
<defs>
<clipPath id="clip0_64_51">
<rect width="40" height="40" fill="white" transform="translate(0.277344 0.150024)"/>
</clipPath>
</defs>
</svg>
